<?xml version="1.0" encoding="UTF-8"?>
<!DOCTYPE svg PUBLIC "-//W3C//DTD SVG 1.1//EN" "http://www.w3.org/Graphics/SVG/1.1/DTD/svg11.dtd">
<!-- Creator: CorelDRAW X8 -->
<svg xmlns="http://www.w3.org/2000/svg" xml:space="preserve" width="57.452mm" height="32.923mm" version="1.1" style="shape-rendering:geometricPrecision; text-rendering:geometricPrecision; image-rendering:optimizeQuality; fill-rule:evenodd; clip-rule:evenodd"
viewBox="0 0 5745 3292"
 xmlns:xlink="http://www.w3.org/1999/xlink">

 <defs>
  <style type="text/css">
   <![CDATA[
    .str0 {stroke:#2B2A29;stroke-width:20}
    .fil3 {fill:none}
    .fil2 {fill:#243152}
    .fil1 {fill:#3765AB}
    .fil0 {fill:#F4D160}
   ]]>
  </style>
   <mask id="id0">
  <linearGradient id="id1" gradientUnits="userSpaceOnUse" x1="585.665" y1="1839.11" x2="757.801" y2="1699.88">
   <stop offset="0" style="stop-opacity:0; stop-color:white"/>
   <stop offset="1" style="stop-opacity:1; stop-color:white"/>
  </linearGradient>
    <rect style="fill:url(#id1)" x="567" y="1654" width="222" height="215"/>
   </mask>
   <mask id="id2">
  <linearGradient id="id3" gradientUnits="userSpaceOnUse" x1="1371.33" y1="1393.66" x2="1642.3" y2="1614.18">
   <stop offset="0" style="stop-opacity:0; stop-color:white"/>
   <stop offset="1" style="stop-opacity:1; stop-color:white"/>
  </linearGradient>
    <rect style="fill:url(#id3)" x="1292" y="1280" width="345" height="387"/>
   </mask>
   <mask id="id4">
  <linearGradient id="id5" gradientUnits="userSpaceOnUse" x1="1766.18" y1="2311.35" x2="2797.6" y2="2176.98">
   <stop offset="0" style="stop-opacity:0; stop-color:white"/>
   <stop offset="1" style="stop-opacity:1; stop-color:white"/>
  </linearGradient>
    <rect style="fill:url(#id5)" x="1769" y="1907" width="1388" height="847"/>
   </mask>
 </defs>
 <g id="Слой_x0020_1">
  <metadata id="CorelCorpID_0Corel-Layer"/>
  <path class="fil0 str0" d="M1842 22c-541,629 -1506,1599 -1567,1792 -34,108 39,335 35,303l-31 -271 1389 1158 729 110c1198,-489 1122,-441 1919,-928l677 555 364 -273 -430 -101 -171 -294 237 -306 463 101 -320 -482 -644 425 -2650 -1789z"/>
  <path class="fil1" d="M1842 22l9 215 1550 1819 112 590 -1116 468 -729 -110 -1299 -1067 65 75 -124 105c0,0 -61,-118 -48,-211 13,-92 37,-174 248,-413 211,-239 1332,-1471 1332,-1471z"/>
  <path class="fil2 str0" style="mask:url(#id0)" d="M589 1724c0,0 31,-81 133,-56 103,26 48,147 -24,162 -2,1 -83,46 -119,21 -7,-4 8,-123 10,-127z"/>
  <path class="fil0" style="mask:url(#id2)" d="M1497 1281c0,0 -20,102 -57,148 -37,46 -148,62 -148,62 0,0 39,134 64,146 26,12 224,58 262,7 39,-52 7,-199 3,-286 -4,-87 -124,-77 -124,-77z"/>
  <path class="fil2 str0" d="M1317 1329c195,-507 435,484 -15,184 -10,-7 12,-178 15,-184z"/>
  <polyline class="fil3 str0" points="2084,1894 3145,2092 2212,2740 1757,2396 "/>
  <polygon class="fil0" style="mask:url(#id4)" points="2095,1907 3157,2105 2224,2754 1769,2410 "/>
 </g>
</svg>
