<?xml version="1.0" encoding="UTF-8"?>
<!DOCTYPE svg PUBLIC "-//W3C//DTD SVG 1.1//EN" "http://www.w3.org/Graphics/SVG/1.1/DTD/svg11.dtd">
<!-- Creator: CorelDRAW X8 -->
<svg xmlns="http://www.w3.org/2000/svg" xml:space="preserve" width="148.434mm" height="88.8168mm" version="1.1" style="shape-rendering:geometricPrecision; text-rendering:geometricPrecision; image-rendering:optimizeQuality; fill-rule:evenodd; clip-rule:evenodd"
viewBox="0 0 14843 8882"
 xmlns:xlink="http://www.w3.org/1999/xlink">
 <defs>
  <style type="text/css">
   <![CDATA[
    .str0 {stroke:#2B2A29;stroke-width:20}
    .str1 {stroke:#3765AB;stroke-width:20}
    .fil4 {fill:none}
    .fil2 {fill:#243152}
    .fil5 {fill:#233152}
    .fil3 {fill:#033A7D}
    .fil1 {fill:#3765AB}
    .fil0 {fill:#F4D160}
    .fil6 {fill:#FCE7A4}
   ]]>
  </style>
   <mask id="id0">
  <linearGradient id="id1" gradientUnits="userSpaceOnUse" x1="10456.5" y1="2882.75" x2="10560.7" y2="2515.67">
   <stop offset="0" style="stop-opacity:0; stop-color:white"/>
   <stop offset="1" style="stop-opacity:1; stop-color:white"/>
  </linearGradient>
    <rect style="fill:url(#id1)" x="10126" y="2477" width="586" height="417"/>
   </mask>
   <mask id="id2">
  <linearGradient id="id3" gradientUnits="userSpaceOnUse" x1="9339.17" y1="2690.25" x2="9116.38" y2="3469.27">
   <stop offset="0" style="stop-opacity:0; stop-color:white"/>
   <stop offset="1" style="stop-opacity:1; stop-color:white"/>
  </linearGradient>
    <rect style="fill:url(#id3)" x="8789" y="2642" width="908" height="856"/>
   </mask>
   <mask id="id4">
  <linearGradient id="id5" gradientUnits="userSpaceOnUse" x1="5719.68" y1="6209.51" x2="8708.91" y2="5785.4">
   <stop offset="0" style="stop-opacity:0; stop-color:white"/>
   <stop offset="1" style="stop-opacity:1; stop-color:white"/>
  </linearGradient>
    <rect style="fill:url(#id5)" x="5154" y="4583" width="3478" height="2760"/>
   </mask>
 </defs>
 <g id="Слой_x0020_1">
  <metadata id="CorelCorpID_0Corel-Layer"/>
  <path class="fil0" d="M9193 578c507,99 1516,467 2597,719 851,198 933,296 796,709 -6,18 -1302,2460 -1481,2955l155 384 350 310 886 741 291 373 -2638 -57 -2245 1038c-2777,-1135 -2600,-1022 -4449,-2154l-1570 1289 -845 -633 998 -236 396 -681 -549 -709 -1073 233 741 -1116 1494 984 6146 -4149z"/>
  <path class="fil1" d="M9193 578c1854,585 3301,885 3400,1048 84,136 -304,695 -621,1513 -1304,2391 -1253,1769 684,3462 103,286 -507,185 -1248,-329l-921 -1418 -1988 -3807 -2733 1845 -2719 1835 -1494 -984 -741 1116 1073 -233 549 709 -95 164 -301 517 -998 236 845 633 1645 -1243 1787 1023 2587 1085 1693 -256c6556,-252 884,-1503 1640,-2798 488,-838 1140,-1917 1349,-2690 87,-321 143,-484 -167,-567 -1713,-461 -2216,-653 -3226,-861z"/>
  <path class="fil2 str0" style="mask:url(#id0)" d="M10514 2521c0,0 -167,-112 -328,72 -161,184 105,341 261,276 6,-3 218,-25 255,-119 7,-19 -180,-223 -188,-229z"/>
  <path class="fil3" style="mask:url(#id2)" d="M8950 2642c0,0 173,169 305,206 132,38 364,-78 364,-78 0,0 104,306 72,363 -32,57 -349,408 -490,360 -141,-47 -275,-369 -384,-540 -108,-171 133,-311 133,-311z"/>
  <path class="fil2 str0" d="M9358 2495c-1046,-705 -187,1498 271,330 11,-26 -259,-321 -271,-330z"/>
  <polyline class="fil4 str0" points="8632,4919 6170,5379 8334,6883 9389,6085 "/>
  <polygon class="fil5" style="mask:url(#id4)" points="8632,4919 6511,4583 5154,5840 7318,7343 8334,6883 "/>
  <path class="fil6" d="M9225 2554c0,1 94,170 136,258 57,121 53,188 84,158 73,-72 69,-281 -3,-365 -72,-84 -217,-51 -217,-51z"/>
  <polygon class="fil1 str1" points="8632,4919 6226,5369 8358,6865 9389,6085 "/>
 </g>
</svg>
