<?xml version="1.0" encoding="UTF-8"?>
<!DOCTYPE svg PUBLIC "-//W3C//DTD SVG 1.1//EN" "http://www.w3.org/Graphics/SVG/1.1/DTD/svg11.dtd">
<!-- Creator: CorelDRAW X8 -->
<svg xmlns="http://www.w3.org/2000/svg" xml:space="preserve" width="50mm" height="80mm" version="1.1" style="shape-rendering:geometricPrecision; text-rendering:geometricPrecision; image-rendering:optimizeQuality; fill-rule:evenodd; clip-rule:evenodd"
viewBox="0 0 5000 8000"
 xmlns:xlink="http://www.w3.org/1999/xlink">
 <defs>
  <style type="text/css">
   <![CDATA[
    .fil2 {fill:#2B2C2D}
    .fil0 {fill:#3764AA}
    .fil3 {fill:#806F5F}
    .fil1 {fill:#F3D05F}
   ]]>
  </style>
 </defs>
 <g id="Слой_x0020_1">
  <metadata id="CorelCorpID_0Corel-Layer"/>
  <g id="_881936776">
   <path class="fil0" d="M2175 7544c19,-127 53,-269 78,-395l401 -1971c23,-112 155,-725 157,-784 2,-70 -180,-1581 -193,-1694 -11,-97 -131,-1239 -152,-1273 -21,-33 -176,-191 -218,-250 -49,57 -117,183 -165,222l-18 -671c-18,-32 -215,-280 -235,-296 -13,-6 -14,1 -33,-37 -66,-2 -147,40 -205,64 -38,14 -152,55 -180,75l140 529c-60,25 -265,198 -330,229l-7 -78c-49,33 -101,71 -150,107 -83,61 -70,40 -92,162l-393 2188c-31,177 -145,751 -156,875l900 -23c-4,-259 -56,-2668 -38,-2698 29,12 15,138 16,173l21 1287c9,472 -2,985 35,1451 37,462 57,941 84,1406 27,470 58,938 85,1408 41,1 407,-190 486,-220l321 -2751c-51,-26 -116,-68 -169,-99l-127 -76c-10,-6 -9,-4 -21,-13 -11,-9 -7,-6 -14,-14 17,-9 -20,-17 29,-1l324 196 -348 3000 167 -28z"/>
   <path class="fil1" d="M2248 1177c42,59 197,217 218,250 21,34 141,1176 152,1273 13,113 195,1624 193,1694 -2,59 -134,672 -157,784l-401 1971c-25,126 -59,268 -78,395 79,-11 165,-29 244,-44 274,-51 176,2 358,-226 57,-71 72,-88 110,-186 108,-282 221,-565 330,-847 108,-281 218,-559 326,-842 237,-618 166,-300 59,-612 -26,-74 -40,-165 -47,-248l-314 -6c-29,-904 -81,-1850 -121,-2762l-5 -161c5,-21 -1,-6 8,-19l137 2920c142,17 358,10 506,11 97,0 147,13 246,13 87,0 175,0 262,0 -1,-50 -60,-223 -77,-283 -28,-97 -55,-188 -83,-282l-167 -575c10,-44 -136,-497 -152,-554 -105,-373 -224,-742 -327,-1112 -25,-89 -56,-186 -81,-275 -14,-49 -26,-86 -40,-137l-46 -142c-18,-28 -4,-22 -40,-35l-384 -106c-134,-38 -307,-98 -440,-122l-189 265z"/>
   <path class="fil2" d="M3947 3395l167 575c28,94 55,185 83,282 17,60 76,233 77,283 -87,0 -175,0 -262,0 -99,0 -149,-13 -246,-13 -148,-1 -364,6 -506,-11l-137 -2920c-9,13 -3,-2 -8,19l5 161c40,912 92,1858 121,2762l314 6c7,83 21,174 47,248 107,312 178,-6 -59,612 -108,283 -218,561 -326,842 -109,282 -222,565 -330,847 -38,98 -53,115 -110,186 -182,228 -84,175 -358,226 -79,15 -165,33 -244,44l-167 28 348 -3000 -324 -196c-49,-16 -12,-8 -29,1 7,8 3,5 14,14 12,9 11,7 21,13l127 76c53,31 118,73 169,99l-321 2751c-79,30 -445,221 -486,220 -27,-470 -58,-938 -85,-1408 -27,-465 -47,-944 -84,-1406 -37,-466 -26,-979 -35,-1451l-21 -1287c-1,-35 13,-161 -16,-173 -18,30 34,2439 38,2698l-900 23c11,-124 125,-698 156,-875l393 -2188c22,-122 9,-101 92,-162 49,-36 101,-74 150,-107l7 78c65,-31 270,-204 330,-229l-140 -529c28,-20 142,-61 180,-75 58,-24 139,-66 205,-64 19,38 20,31 33,37l-19 -24 38 -17c60,-11 248,-24 296,-44 -80,0 -160,11 -233,17 -84,6 -161,2 -245,9l-483 25 34 787c-53,36 -103,71 -154,109 -83,63 -84,41 -97,98l-90 502c-95,579 -226,1200 -321,1779 -24,147 -51,294 -80,445 -14,78 -26,145 -39,223 -10,59 -39,170 -40,231l245 -8c95,0 169,-9 254,-9 141,1 103,-2 180,74 42,42 94,88 131,132l124 130c27,33 37,434 39,485l47 732c12,77 6,170 13,250 6,72 17,170 16,246l32 485c11,80 3,169 12,250 8,69 16,172 16,247l499 -228c0,82 -25,164 -25,245l632 -113c40,-8 26,0 46,-22l209 -273c22,-40 -1,-3 9,-43 16,-71 704,-1789 800,-2060 13,-37 32,-72 40,-105 47,32 51,46 122,64 184,47 343,-82 352,-191 -33,-8 -76,-33 -104,-49 -136,-83 -125,-32 -157,-148 -10,-36 -22,-87 -36,-116l398 0c-1,-46 -260,-898 -293,-1011 -8,-30 -13,-47 -20,-73 -7,-29 -10,-49 -31,-68z"/>
   <path class="fil1" d="M2145 347c-48,20 -236,33 -296,44l-38 17 19 24c20,16 217,264 235,296 19,42 23,527 26,619 37,-28 252,-339 298,-404 20,-27 32,-31 34,-63l-78 -532c-39,-1 -93,3 -122,-9 -43,0 -42,6 -78,8z"/>
   <path class="fil3" d="M1210 416l29 834c23,-2 256,-177 290,-202l-143 -531 293 -115 -469 14z"/>
   <path class="fil1" d="M4164 4875c-58,-23 -147,-76 -205,-106 -65,-35 -52,-158 -91,-222l-290 -8c-5,233 133,577 423,488 72,-22 140,-87 163,-152z"/>
   <path class="fil0" d="M1336 4869c15,-28 -10,-288 -11,-320l-282 3c6,36 218,221 293,317z"/>
   <polygon class="fil2" points="1598,871 1909,927 1712,589 "/>
   <path class="fil2" d="M2065 728l18 671c48,-39 116,-165 165,-222l189 -265c133,24 306,84 440,122l384 106c36,13 22,7 40,35 -1,-38 16,-32 -76,-57 -226,-61 -582,-173 -788,-221 0,-43 -12,-88 -18,-134 -12,-83 -58,-362 -58,-424l-138 0c29,12 83,8 122,9l78 532c-2,32 -14,36 -34,63 -46,65 -261,376 -298,404 -3,-92 -7,-577 -26,-619z"/>
   <path class="fil1" d="M1636 847c29,20 178,40 224,44 -29,-76 -105,-170 -143,-247 -25,29 -68,159 -81,203z"/>
   <path class="fil2" d="M1617 931c37,72 313,165 373,27 12,-27 20,-104 14,-136 -3,-16 -3,-12 -7,-20 -26,33 -3,101 -24,148 -42,97 -226,57 -308,-1 -28,-19 -21,-29 -48,-18z"/>
  </g>
 </g>
</svg>
